<svg id="Layer_1" data-name="Layer 1" xmlns="http://www.w3.org/2000/svg" viewBox="0 0 585.89 503.25"><title>fishing</title><path d="M345.33,399.41c-3-2.05-6-4.24-8.87-6.49a8.58,8.58,0,0,0-10.64,13.46c3.18,2.52,6.5,4.95,9.86,7.23,17.33,11.77,40.83-.57,40.83-21.52V378.33c0-20.83-23.33-33.35-40.56-21.71-3.41,2.31-6.8,4.79-10.07,7.37a8.58,8.58,0,1,0,10.64,13.47c2.93-2.31,6-4.54,9-6.61a8.89,8.89,0,0,1,13.78,7.48v13.76a8.92,8.92,0,0,1-14,7.32Z" transform="translate(-5.11 -48)"/><path d="M261.83,348a22.87,22.87,0,1,0,22.87,22.87A22.9,22.9,0,0,0,261.83,348Zm0,28.57a5.7,5.7,0,1,1,5.7-5.7A5.71,5.71,0,0,1,261.83,376.59Z" transform="translate(-5.11 -48)"/><path d="M559.45,326.08a210.71,210.71,0,0,0-29,19.27,12.66,12.66,0,0,1-15.06.54,259.48,259.48,0,0,0-85.71-38L425,288.63c-7.2-29.63-43.59-40.83-66.06-20.21-11.64,10.68-23,22.12-33.7,34-47.28,6.23-93.37,24.53-131.12,55.3A30,30,0,0,0,183,381.11h0a30,30,0,0,0,11.12,23.38l.17.14c36.1,29.36,79.68,47.23,124.32,54.2a8.58,8.58,0,1,0,2.65-17q-12-1.86-23.53-4.79a115.35,115.35,0,0,0,0-112c68.14-17.18,146.77-7.06,208,34.92a29.74,29.74,0,0,0,35.42-1.22,195.24,195.24,0,0,1,26.64-17.71,4.14,4.14,0,0,1,6.1,3.67v72.65a4.14,4.14,0,0,1-6.1,3.67,194.25,194.25,0,0,1-26.64-17.7,29.74,29.74,0,0,0-35.42-1.23c-40.34,27.67-91.12,42.91-143,42.91a8.58,8.58,0,0,0,0,17.16q13.89,0,27.46-1.29c6.74,6.95,13.58,13.62,20.39,19.84,9.13,8.34,20.19,10.11,29.49,6,11.72-5.17,19-18.45,19-34.65v-6.72a256.58,256.58,0,0,0,56.4-29.09,12.63,12.63,0,0,1,15.06.54,213.37,213.37,0,0,0,29,19.27A21.31,21.31,0,0,0,591,417.43V344.78a21.3,21.3,0,0,0-31.55-18.7Zm-188.92-45c12.82-11.76,33.65-5.33,37.78,11.63L411.07,304a289.92,289.92,0,0,0-60.26-3.83q9.65-9.9,19.72-19.15Zm-89.81,49a98.28,98.28,0,0,1,0,102.12,235.62,235.62,0,0,1-75.79-41h0a13,13,0,0,1,0-20.15,235.81,235.81,0,0,1,75.78-41Zm152.35,141c-4.31,1.9-8.35-.57-11-3q-5.29-4.83-10.6-10a273.17,273.17,0,0,0,30.33-7c0,7.64-2.08,17.07-8.75,20Z" transform="translate(-5.11 -48)"/><path d="M159.28,526.8a95,95,0,0,0,30-59.89l3.59-33.72a22.95,22.95,0,0,0-33.9-22.89l-23.69,13.16c-11.07,6.15-15.35,20.06-9.54,31a23.07,23.07,0,0,0,17.16,12c-5.47,26.38-26.33,38.6-45.77,38.94h-.83a45,45,0,0,1-40.57-25.26c-7.88-15.84-6-33.69,5-47.73l6-7.68a8.58,8.58,0,0,0-13.51-10.59l-6,7.68A62.3,62.3,0,0,0,97.39,522.55c33.66-.6,59.78-25.49,63.51-60.52a11.61,11.61,0,0,0-13.81-12.63,5.81,5.81,0,0,1-6.23-3,6.13,6.13,0,0,1,2.71-8l23.7-13.17a5.68,5.68,0,0,1,6,.24,5.84,5.84,0,0,1,2.51,5.83l-3.6,33.73a77.74,77.74,0,0,1-24.5,49.07A75.7,75.7,0,0,1,96.2,534.09c-28.91,0-53.72-15.53-66.37-41.55s-9.55-55.11,8.29-77.85L69.34,374.9a99.36,99.36,0,0,0,21.11-61.1V285.7a20.86,20.86,0,0,0-11.19-18.64,37.06,37.06,0,0,1,8.38-69v12a25.51,25.51,0,1,0,17.16,0v-12a37,37,0,0,1,8.48,68.9A21.16,21.16,0,0,0,102,285.89V313.8A111,111,0,0,1,78.41,382l-.46.59A8.58,8.58,0,1,0,91.46,393.2l.46-.58a128.25,128.25,0,0,0,27.23-78.82V285.89a4.11,4.11,0,0,1,2.06-3.66A54.2,54.2,0,0,0,104.8,180.62v-124a8.59,8.59,0,0,0-17.17,0v124A53.76,53.76,0,0,0,59.27,194.5a54.16,54.16,0,0,0,12.1,87.81,3.8,3.8,0,0,1,1.92,3.39v28.1a82.2,82.2,0,0,1-17.45,50.51L24.62,404.09A91,91,0,0,0,96.2,551.25a92.81,92.81,0,0,0,63.08-24.45ZM96.22,242.5a8.35,8.35,0,1,1,8.35-8.35A8.36,8.36,0,0,1,96.22,242.5Z" transform="translate(-5.11 -48)"/></svg>