<svg id="Layer_2" data-name="Layer 2" xmlns="http://www.w3.org/2000/svg" viewBox="0 0 574.89 560"><title>fishing</title><path d="M338.9,396.93c-2.95-2.28-5.89-4.72-8.71-7.23-3.69-3.2-9-2.39-11.8,1.8a10.46,10.46,0,0,0,1.36,13.19c3.12,2.81,6.38,5.51,9.68,8.05,17,13.11,40.07-.63,40.07-24V373.46c0-23.2-22.9-37.14-39.81-24.18-3.35,2.57-6.67,5.34-9.88,8.21a10.45,10.45,0,0,0-1.39,13.42,7.77,7.77,0,0,0,11.83,1.58h0c2.88-2.57,5.89-5.06,8.83-7.36,4-3,9.44-1.75,12.09,2.82a10.87,10.87,0,0,1,1.44,5.51v15.32c0,5.48-3.93,9.92-8.77,9.92a8.07,8.07,0,0,1-5-1.77Z" transform="translate(-5.11 -6)"/><path d="M257,339.68c-12.4,0-22.45,11.41-22.45,25.47s10.05,25.47,22.45,25.47,22.44-11.41,22.44-25.47h0C279.38,351.09,269.34,339.7,257,339.68Zm0,31.82c-3.09,0-5.59-2.84-5.59-6.35s2.5-6.35,5.59-6.35,5.59,2.84,5.59,6.35-2.5,6.36-5.59,6.37h0Z" transform="translate(-5.11 -6)"/><path d="M549,315.28a206,206,0,0,0-28.46,21.45,11.26,11.26,0,0,1-14.78.61A240.79,240.79,0,0,0,421.68,295l-4.59-21.44c-7.07-33-42.78-45.47-64.84-22.51-11.42,11.9-22.57,24.63-33.07,37.86A241.84,241.84,0,0,0,190.5,350.51c-6.93,6.36-10.94,15.93-10.92,26h0c0,10.11,4,19.68,10.92,26l.17.15a241.72,241.72,0,0,0,122,60.35c4.61.82,8.93-2.76,9.65-8s-2.44-10.12-7.05-10.94a223.73,223.73,0,0,1-23.09-5.33,143.69,143.69,0,0,0,0-124.71c66.88-19.13,144-7.86,204.14,38.88,10.58,8.29,24.7,7.74,34.76-1.36a191.94,191.94,0,0,1,26.14-19.72,3.83,3.83,0,0,1,5.5,1.88,5.06,5.06,0,0,1,.49,2.21V416.9a4.37,4.37,0,0,1-4,4.64,3.69,3.69,0,0,1-1.95-.55,189.63,189.63,0,0,1-26.14-19.71c-10.06-9.09-24.18-9.65-34.76-1.37-39.59,30.81-89.43,47.78-140.35,47.78-4.65,0-8.42,4.28-8.42,9.56s3.77,9.55,8.42,9.55a250.52,250.52,0,0,0,26.95-1.44c6.62,7.74,13.33,15.17,20,22.09,9,9.29,19.82,11.26,28.95,6.69,11.5-5.76,18.64-20.55,18.64-38.59v-7.48a242.56,242.56,0,0,0,55.35-32.39,11.24,11.24,0,0,1,14.78.6,210.09,210.09,0,0,0,28.46,21.46c10.16,6.25,22.85,2,28.36-9.55A26.38,26.38,0,0,0,580,417V336.1c0-13.1-9.33-23.73-20.88-23.75A18.89,18.89,0,0,0,549,315.28ZM363.63,265.17c12.58-13.09,33-5.93,37.08,12.95l2.7,12.57a251.34,251.34,0,0,0-59.13-4.26q9.47-11,19.35-21.33Zm-88.14,54.56c18.72,34.93,18.72,78.78,0,113.71a224.28,224.28,0,0,1-74.38-45.65h0c-5.46-5.06-6.28-14.17-1.83-20.37a14,14,0,0,1,1.83-2.07,224.34,224.34,0,0,1,74.37-45.65ZM425,476.73c-4.23,2.12-8.2-.63-10.8-3.34Q409,468,403.81,462.26a242.17,242.17,0,0,0,29.76-7.8c0,8.51-2,19-8.58,22.27Z" transform="translate(-5.11 -6)"/><path d="M156.31,538.77c16.62-17.43,27.09-41.13,29.44-66.68l3.52-37.55c1.53-14-7.24-26.76-19.59-28.49a20.3,20.3,0,0,0-13.68,3l-23.25,14.66c-10.86,6.85-15.06,22.33-9.36,34.52,3.41,7.25,9.67,12.22,16.84,13.36-5.37,29.37-25.84,43-44.92,43.36H94.5c-16.93,0-32.39-10.87-39.82-28.13a54.45,54.45,0,0,1,4.91-53.15l5.89-8.55A10.45,10.45,0,0,0,64,411.7a7.77,7.77,0,0,0-11.82,1.63l-5.89,8.55C25.49,452,30.15,495.64,56.72,519.27A56.55,56.55,0,0,0,95.57,534c33-.67,58.67-28.38,62.33-67.39.67-7.09-3.86-13.47-10.11-14.23a10.27,10.27,0,0,0-3.45.17,5.52,5.52,0,0,1-6.11-3.34,7.28,7.28,0,0,1,2.66-8.91l23.26-14.66A5,5,0,0,1,170,426a6.89,6.89,0,0,1,2.46,6.49L169,470c-1.9,20.92-10.45,40.34-24.05,54.63C131.15,539,113.11,547,94.4,546.89c-28.37,0-52.72-17.29-65.14-46.26s-9.37-61.37,8.14-86.69L68,369.64c13.39-19.43,20.69-43.37,20.72-68V270.31c0-8.7-4.19-16.71-11-20.75C59.91,239.13,52.89,214.24,62.09,194,67,183.28,75.68,175.52,86,172.73v13.36c-13,5.28-19.81,21.53-15.16,36.3s19,22.48,32,17.2,19.81-21.53,15.16-36.3c-2.53-8-8.09-14.33-15.16-17.2V172.73c19.52,5.21,31.62,27.39,27,49.54-2.43,11.73-9.26,21.66-18.7,27.18-6.88,4.12-11.15,12.25-11.07,21.08V301.6c0,27.54-8.19,54.26-23.15,75.94l-.45.66a10.45,10.45,0,0,0,1.42,13.43A7.78,7.78,0,0,0,89.75,390l.45-.64c17.27-25.06,26.68-55.95,26.72-87.77V270.53a4.75,4.75,0,0,1,2-4.08c26.07-15.37,36.22-51.8,22.68-81.38-7.77-16.95-22.15-28.73-38.78-31.76V15.24C102.68,10,98.78,5.83,94.13,6c-4.43.17-8,4.2-8.14,9.23V153.31a50.53,50.53,0,0,0-27.83,15.46c-21.5,22.68-22.71,60.84-2.72,85.23A54.47,54.47,0,0,0,70,266.54a4.35,4.35,0,0,1,1.88,3.77V301.6a99.6,99.6,0,0,1-17.12,56.25L24.15,402.14C-6.29,446.17.5,509.87,39.31,544.4,55,558.39,74.42,566,94.4,566,117.32,566.08,139.42,556.36,156.31,538.77ZM94.42,222.21c-4.53,0-8.2-4.16-8.2-9.3s3.67-9.29,8.2-9.29,8.19,4.16,8.19,9.29S98.94,222.21,94.42,222.21Z" transform="translate(-5.11 -6)"/></svg>