<svg id="Layer_1" data-name="Layer 1" xmlns="http://www.w3.org/2000/svg" viewBox="0 0 585 573.08"><title>Group packages-01</title><path d="M217.33,478.26c13.2-.84,25,1.22,34.12,11.2s11.57,21.31,8.74,34.61h28a12.92,12.92,0,1,1-.19,25.84H183.72c0,7.39.14,14.42,0,21.43a12.92,12.92,0,0,1-25.82-.09,110,110,0,0,1,0-13.34c.66-6.61,0-11.88-7.83-13.77-2.43-.58-4.46-2.9-7.36-4.9v12.62c0,6,.14,12,0,18-.33,10-8.44,16.22-17.09,13.27A11.76,11.76,0,0,1,117,573a107.53,107.53,0,0,1-.4-11.35c0-14.12-.1-28.23,0-42.35a8,8,0,0,0-3.18-7c-2.85-2.31-5.52-4.81-8.18-7.33A12.91,12.91,0,0,1,104,487.3a12.23,12.23,0,0,1,17.12-2.45l.32.24c6.45,5.11,12.43,10.79,18.56,16.28s12.67,11.31,18.9,17.09a20.13,20.13,0,0,0,14.52,5.66c16.75-.14,33.47,0,50.2,0,4.09,0,7.78-.92,10.16-4.68A9.66,9.66,0,0,0,231,506.08a9.55,9.55,0,0,0-5.26-1.58c-8.74-.21-17.48-.34-26.21,0-20,.68-36.34-6.3-49.19-21.87-9.49-11.5-19.58-22.48-29.28-33.79a39.8,39.8,0,0,0-31.46-14.79H50.4c-11.2,0-19,7.8-19.12,18.92,0,4.31,0,8.74-.36,12.91A12.5,12.5,0,0,1,18.4,477.05,12.32,12.32,0,0,1,5.61,466.2c-2.15-19.23.9-36.81,17.63-49.4a42.55,42.55,0,0,1,25.89-8.74c14.24,0,28.49-.26,42.73,0A62.79,62.79,0,0,1,139.06,430c11,12.41,21.86,25,32.72,37.55A27.94,27.94,0,0,0,191.46,478c0-2.08-.09-3.84,0-5.59.54-9.21,0-18.68,1.92-27.62,4.18-19.13,22.73-34.32,42.23-36.09,1.17-.1,2.34-.24,3.5-.4,9-1.12,16.9.3,24.29,6.66,11,9.44,22.87,17.81,34.37,26.64.71.56,1.5,1,2.22,1.48,11.62-9.7,23.31-19.14,34.62-29A24.52,24.52,0,0,1,352.48,408c23,.51,41.58,13,48.66,33.93a71.58,71.58,0,0,1,2.9,17.25c.49,6.08.11,12.24.11,18.67a26.52,26.52,0,0,0,18.42-9.65c9.45-10.82,19.12-21.47,28.24-32.58,10.68-13,23.32-22.72,40.21-26.12a78.15,78.15,0,0,1,14-1.41c12.67-.19,25.38.28,38-.14a44.94,44.94,0,0,1,46.79,43c0,.76,0,1.52,0,2.28q.28,31.56,0,63.15c0,10.49-9,16.94-17.92,13.21a12,12,0,0,1-7.86-10.34,50.14,50.14,0,0,1-.26-5.48V455.36c0-14.28-7.17-21.32-21.52-21.32h-37a39.06,39.06,0,0,0-30.71,14c-10.71,12.24-21.5,24.59-32.2,37a54.55,54.55,0,0,1-42.75,19.35H370.18c-6.22,0-10.69,4-10.82,9.46-.1,5.71,4.2,10.12,10.6,10.17,17.91.14,35.81.1,53.73,0,4.79,0,8.74-2.38,12.23-5.56,11.5-10.49,23.09-20.83,34.65-31.25,4.7-4.27,9.78-6.36,16-3.3a12.78,12.78,0,0,1,5.92,17.09A12.53,12.53,0,0,1,490.4,504c-3,3.11-6.52,5.68-9.42,8.85a9.35,9.35,0,0,0-2.5,5.61c-.19,16.34-.08,32.68-.14,49a33.47,33.47,0,0,1-.5,6.24,12.44,12.44,0,0,1-12.76,9.93,12.25,12.25,0,0,1-12.4-10.35,42,42,0,0,1-.43-6.24V539.84c-5,2.67-9.79,5.14-14.42,7.81-.58.35-.68,1.84-.68,2.8v19.61c-.09,8.11-5.37,13.63-13,13.63s-12.88-5.5-12.95-13.63V549.85H324.62a12.92,12.92,0,1,1-.16-25.83H334.7c-2.9-13.27-.47-25,8.9-35s21.36-11.78,35.13-10.85c-.52-9.32-.09-18.29-1.75-26.85-2.08-10.8-13.49-18.28-24.47-17.48a8.56,8.56,0,0,0-4.35,2.22c-12.74,10.82-25.43,21.73-38.14,32.6-6.43,5.49-11.87,5.68-18.68.51-13.31-10.14-26.49-20.42-39.86-30.47-2.69-2-5.82-4.32-9-4.72a21,21,0,0,0-15.38,4.61,22.93,22.93,0,0,0-9.72,19.23C217.36,464.5,217.33,471.11,217.33,478.26Z" transform="translate(-5 -10.85)"/><path d="M219.09,11c10.84,0,21.7-.24,32.53,0a101.73,101.73,0,0,1,42.86,192.85,94.32,94.32,0,0,1-48,10.49,68.61,68.61,0,0,0-38.68,9.31c-15.73,8.9-32.23,16.61-48.45,24.74-8.55,4.3-16.8,1.75-19.46-6.17a17.78,17.78,0,0,1-.21-9.16c1.89-8.11,4.21-16.13,6.68-24.09.8-2.57.26-3.65-2.06-4.79a99.37,99.37,0,0,1-46.48-45.44A97.29,97.29,0,0,1,88.49,96c7.45-40.09,31.1-66.66,69.29-80.28a95.2,95.2,0,0,1,32.77-4.82h28.63Zm-47,201.75c14.42-7.26,27.88-14,41.16-20.82a29.79,29.79,0,0,1,13.88-3.34c11.08-.14,22.32.44,33.21-1.13a75.42,75.42,0,0,0,63.7-85.56c-.14-1-.3-1.93-.48-2.89C317.05,63,286,37.23,248.56,37c-19.73-.14-39.46-.3-59.2.12A90.92,90.92,0,0,0,167,40.23C128.41,51,104.78,92.67,115.25,131.41c7.19,26.51,24.05,44.3,49.92,53.52,8.93,3.18,12.24,9.21,9.68,18.35C174.09,206.13,173.23,208.92,172.13,212.79Z" transform="translate(-5 -10.85)"/><path d="M222.35,322.77a74.74,74.74,0,0,1,71.42-75.39c43.69-2.17,77.18,31.36,78.91,72.57a74.79,74.79,0,0,1-71.75,77.72l-1,0C257.44,399.29,223.71,366.24,222.35,322.77Zm75.38-49.5a49.22,49.22,0,0,0-49.24,48.57c-.12,27.11,21,49.92,49.21,49.83a49.2,49.2,0,0,0,0-98.4Z" transform="translate(-5 -10.85)"/><path d="M5,322.54a74.86,74.86,0,0,1,72-75.16c43.18-1.75,77.31,31.46,78.36,74a74.64,74.64,0,0,1-72.95,76.27C39.67,399.08,5.83,365.64,5,322.54Zm75.16-49.29a51.75,51.75,0,1,0,.4,0h-.42Z" transform="translate(-5 -10.85)"/><path d="M439.24,321.77c-.66-33.6,25.44-71.44,70.34-74.34,43-2.76,75.63,29.1,79.58,68a75.16,75.16,0,1,1-149.54,15.3A77.15,77.15,0,0,1,439.24,321.77Zm124.3.87a49.14,49.14,0,1,0-49.28,49A49.13,49.13,0,0,0,563.54,322.64Z" transform="translate(-5 -10.85)"/><path d="M31.12,533.86c0,12.24.14,24.31,0,36.46C31,580.39,21.77,586.63,13,582.78A12.7,12.7,0,0,1,5.1,570.32c0-24.17-.11-48.35,0-72.52,0-8.07,5.63-13.72,13-13.72s12.88,5.58,13,13.72C31.25,509.83,31.12,521.8,31.12,533.86Z" transform="translate(-5 -10.85)"/><path d="M589.72,562.23c0,2.88.12,5.75,0,8.63-.4,7.61-5.72,12.85-13,12.9a12.46,12.46,0,0,1-12.93-12c0-.15,0-.3,0-.44a168.62,168.62,0,0,1,0-18.81,12.74,12.74,0,0,1,13-12.43,13.1,13.1,0,0,1,12.9,13.11C589.88,556.22,589.72,559.22,589.72,562.23Z" transform="translate(-5 -10.85)"/><path d="M212.12,125.81c13-18.14,25.54-35.8,38.16-53.38a12.61,12.61,0,0,1,19.43-2.08c5,4.63,5.61,11.57,1.26,17.72-11.62,16.4-23.35,32.73-35,49.09-3.63,5.08-7.23,10.22-10.94,15.27-5.68,7.75-14.35,8.48-21.16,1.75q-17.94-17.84-35.7-35.81c-5.64-5.68-5.8-13.48-.5-18.83s12.81-5.24,18.51.26C194.85,108.23,203.29,116.93,212.12,125.81Z" transform="translate(-5 -10.85)"/></svg>