<svg id="Layer_1" data-name="Layer 1" xmlns="http://www.w3.org/2000/svg" viewBox="0 0 584.98 585.09"><title>School Trip-01</title><path d="M373.39,306.62V278.38c-4.93.63-9.67,1.16-14.38,1.83q-32.89,4.47-65.63,9c-2.69.37-5.36.79-8,1.19-7.68,1.17-12.28-2.7-12.28-10.53V220.2c0-8.63,4.33-12.25,12.79-10.71q25.49,4.56,51,9.24,22.56,4.1,45.08,8.23c7.48,1.33,10,4.27,10.06,11.93v68.52c0,3.19.84,4.75,3.94,5.81a124.41,124.41,0,0,1,43.86,26.3,128.19,128.19,0,0,1,40.72,72.13,162.12,162.12,0,0,1,2.78,29.08c.33,34.48.13,69,.13,103.47,0,9-3.07,12.14-12,12.14H438.93c-7,0-10.33-3.33-10.49-10.35a64.07,64.07,0,0,0-52-61.55c-35.74-7.11-71.27,18.83-75.24,54.92-.29,2.69-.47,5.39-.65,8.1a8.9,8.9,0,0,1-9,8.84h-.18q-45.69.11-91.38,0c-5.34,0-8.7-3.38-9-8.92-.64-14.49-4.47-27.94-13.65-39.31-15-18.62-34.72-27.19-58.48-23.94-28.45,3.89-48,22.33-54.44,50a95.2,95.2,0,0,0-1.43,12.94c-.51,6-3.74,9.14-9.79,9.23-5.78,0-11.53.13-17.31,0C19.7,556,8.26,544.44,8.24,528.21V324.07c0-10.56,6.64-17.74,17.13-18.78,1.52-.15,3.05-.19,4.59-.19H347.44c7.51,0,15,1,22.5,1.59C370.9,306.77,372.06,306.62,373.39,306.62ZM26.39,446.7v83.12a8.7,8.7,0,0,0,2.18,5c4.64,5.39,10.78,2.68,16.17,3.32,1.28-5.48,2.08-10.54,3.66-15.35A82.24,82.24,0,0,1,208,534.63c.44,2.81,1.52,3.65,4.28,3.65,22.37-.11,44.73,0,67.1,0,1.14,0,2.25-.09,3.31-.14,6-43.61,40.94-71.39,79.76-72.69A78.81,78.81,0,0,1,408,478c22.05,14,34.52,34.36,38.25,60h18.58V446.7H125.54c-1.3,0-2.62.09-3.9,0a8.87,8.87,0,0,1-7.91-6.08c-2.27-6.25,2.34-12.16,9.49-12.16H318.76v-105H26.56v105H75.77c5.89,0,10,3.76,10,9.13s-4,9.14-9.92,9.14H26.39Zm311-18.51H464.29C460,367.11,405.57,317.51,337.37,323.62Zm36.24-184-82.09-15v41.52a18.66,18.66,0,0,0,2.59,0l35.58-4.86,41.21-5.68c1.74-.24,2.8-.75,2.75-2.82-.13-4.24,0-8.48,0-13.17Z" transform="translate(-8.02 -8)"/><path d="M363.17,107.16,224.77,216.05c9.23,8.62,18.28,17.18,27.42,25.58a6.94,6.94,0,0,1,2.54,5.76c-.17,6.82,0,13.65,0,21.56L135.41,157.64l-13.35,12.59c-6.26,5.88-12.46,11.82-18.84,17.6a8.86,8.86,0,0,1-10.76,1.41,8.44,8.44,0,0,1-4.41-9.54,11.08,11.08,0,0,1,3-5.49q18.81-17.88,37.87-35.51c4.44-4.07,9.61-3.65,14.46.94q22,20.61,44.08,41.28l23.76,22.3,36.14-28.42L356.41,89.05c6.31-5,10.38-4.57,15.83,1.32L528.33,259.12c1,1.12,2.12,2.21,3.07,3.42a9.13,9.13,0,0,1-.74,12.9l-.06.06a9,9,0,0,1-12.65-.7c-.09-.11-.19-.22-.27-.33q-17.32-18.6-34.56-37.3L364.33,108.51A5.49,5.49,0,0,1,363.17,107.16Z" transform="translate(-8.02 -8)"/><path d="M81.18,547.09a45.69,45.69,0,0,1,91.38.26h0a45.69,45.69,0,1,1-91.38-.26ZM126.87,520a27.42,27.42,0,1,0,27.41,27.41v-.16A27.41,27.41,0,0,0,126.8,520Z" transform="translate(-8.02 -8)"/><path d="M410.11,547.2a45.69,45.69,0,1,1-45.89-45.49h.42a45.22,45.22,0,0,1,45.47,45Zm-45.69-27.27a27.42,27.42,0,1,0,27.3,27.53v-.24a27.27,27.27,0,0,0-27.25-27.29Z" transform="translate(-8.02 -8)"/><path d="M543.46,90.59a32.75,32.75,0,1,1-32.55-33A33.26,33.26,0,0,1,543.46,90.59Zm-32.89,14.07A14.4,14.4,0,1,0,496.27,90a14.75,14.75,0,0,0,14.33,14.62Z" transform="translate(-8.02 -8)"/><path d="M146.64,75.51a11,11,0,0,1-5.81,8.35A8.45,8.45,0,0,1,131,82.73c-4.73-4-9.79-6.75-16.26-6.4S103.22,80,99,84.68c-2.24,2.43-4.8,4.44-8.24,3.84a14.52,14.52,0,0,1-6.29-2.65c-9.68-7.75-18.8-7.79-28.72.18-5.08,4.06-11.24,3.29-14.3-1.82a8.84,8.84,0,0,1,1.32-11,38.36,38.36,0,0,1,44.61-7.4,4.5,4.5,0,0,0,5.48-.39,38.75,38.75,0,0,1,49.55,3.17A32.48,32.48,0,0,1,146.64,75.51Z" transform="translate(-8.02 -8)"/><path d="M73.56,264.7a7.48,7.48,0,0,1-7.6-5.21A8.11,8.11,0,0,1,67.24,250c3-3,6-6,9.14-8.85q21-19.67,42-39.24a17.15,17.15,0,0,1,5.81-3.76,8.72,8.72,0,0,1,10.31,4.09,8.82,8.82,0,0,1-1.37,10.73c-4.08,4.08-8.35,7.93-12.58,11.86-13,12.12-25.91,24.29-39,36.28A42.09,42.09,0,0,1,74,265.52Z" transform="translate(-8.02 -8)"/><path d="M61.15,224.53A21.81,21.81,0,0,1,57.81,230q-17.07,16.44-34.47,32.35a9.14,9.14,0,0,1-12.7-.35,8.69,8.69,0,0,1-.15-12.28c.13-.12.25-.25.39-.37Q28.43,232.53,46.33,216a8.18,8.18,0,0,1,9.6-1C59.21,216.59,60.9,219.46,61.15,224.53Z" transform="translate(-8.02 -8)"/><path d="M481.25,130.19a22.49,22.49,0,0,1-3,5.37c-4,4.42-8.36,8.61-12.67,12.79a9.14,9.14,0,1,1-13.85-11.92,8.83,8.83,0,0,1,.86-.87q6.46-6.74,13.23-13.21a8.48,8.48,0,0,1,9.81-1.67C479.17,122.2,480.92,125.16,481.25,130.19Z" transform="translate(-8.02 -8)"/><path d="M470.71,60.67a21.19,21.19,0,0,1-5.25-2.85c-4.44-4-8.61-8.35-12.79-12.69a9,9,0,0,1-.44-12.7l.24-.25A8.87,8.87,0,0,1,465,31.69l.39.38q6.73,6.47,13.21,13.23a8.46,8.46,0,0,1,1.72,9.79C478.84,58.64,476,60.5,470.71,60.67Z" transform="translate(-8.02 -8)"/><path d="M539.93,129.24a10,10,0,0,1,5.6-8.39,8.14,8.14,0,0,1,9.57,1c5,4.64,9.85,9.45,14.46,14.46a8.7,8.7,0,0,1-.68,12.11,8.79,8.79,0,0,1-12.15.59c-4.92-4.55-9.65-9.32-14.18-14.24A19.86,19.86,0,0,1,539.93,129.24Z" transform="translate(-8.02 -8)"/><path d="M550.5,60.61c-4.53-.16-7.4-1.5-9-4.8s-1.83-6.8.73-9.58c4.66-5.12,9.47-10.12,14.62-14.77a9,9,0,0,1,12.63,12.8C565,49.32,560,54.09,555.05,58.71A12.42,12.42,0,0,1,550.5,60.61Z" transform="translate(-8.02 -8)"/><path d="M501.68,154.11c0-3.18-.12-6.36,0-9.52a9,9,0,0,1,8.9-8.68,8.77,8.77,0,0,1,9.14,8.08c.33,6.79.33,13.63,0,20.43a8.77,8.77,0,0,1-9.35,8.15h0a9,9,0,0,1-8.65-8.94c-.13-3.16,0-6.34,0-9.52Z" transform="translate(-8.02 -8)"/><path d="M446.77,99.34c-3.17,0-6.35.11-9.51,0a9,9,0,0,1-8.82-8.75,8.8,8.8,0,0,1,8.26-9.27q10-.46,20.1,0a8.82,8.82,0,0,1,8.3,9.23,9,9,0,0,1-8.79,8.79C453.13,99.45,450,99.34,446.77,99.34Z" transform="translate(-8.02 -8)"/><path d="M574.59,99.32c-3.17,0-6.35.13-9.53,0a9.13,9.13,0,0,1-8.71-8.88,8.82,8.82,0,0,1,8.09-9.14c6.78-.33,13.62-.33,20.42,0A8.66,8.66,0,0,1,593,90.47a1.28,1.28,0,0,1,0,.19,8.9,8.9,0,0,1-8.86,8.66c-3.16.13-6.34,0-9.52,0Z" transform="translate(-8.02 -8)"/><path d="M501.67,26.29c0-3.16-.11-6.34,0-9.52A8.88,8.88,0,0,1,510.44,8a8.73,8.73,0,0,1,9.24,8.19v.05c.31,6.67.29,13.39,0,20.1a8.89,8.89,0,0,1-9.25,8.3,9,9,0,0,1-8.77-8.83C501.56,32.65,501.67,29.47,501.67,26.29Z" transform="translate(-8.02 -8)"/><path d="M172.56,410.08H146.08c-6.53,0-10.09-3.57-10.11-10V351.34a9.14,9.14,0,0,1,8.51-9.72c.3,0,.6,0,.9,0q27.19-.19,54.37,0a9.15,9.15,0,0,1,9.42,8.85V351q.18,24.69,0,49.35c0,6.34-3.66,9.59-10.13,9.65C190.21,410.13,181.39,410.08,172.56,410.08Zm18.15-50H154.5v31.59h36.21Z" transform="translate(-8.02 -8)"/><path d="M264.16,410.08H237.68c-6.82,0-10.22-3.29-10.28-10.18q-.17-24.18,0-48.36c0-6.19,3.66-9.94,9.91-10q26.64-.1,53.29,0c6.34,0,9.91,3.9,9.91,10.31v48c0,6.74-3.42,10.16-10.24,10.2C281.57,410.13,272.86,410.08,264.16,410.08ZM245.88,360c-.09,1.06-.24,2-.24,2.89,0,8.57.09,17.16,0,25.73,0,2.67.81,3.4,3.4,3.37,10.11-.13,20.22,0,30.32,0a24.41,24.41,0,0,0,2.71-.3V360Z" transform="translate(-8.02 -8)"/><path d="M80.82,410.08H54.7c-6.62,0-10-3.4-10-10V351.34c0-6,3.66-9.72,9.64-9.76q26.84-.16,53.65,0c6.07,0,9.63,3.75,9.65,9.76v48.71c0,6.63-3.4,10-10,10C98.71,410.13,89.75,410.08,80.82,410.08ZM99.09,360H63.27v31.65H99.18Z" transform="translate(-8.02 -8)"/></svg>