<svg id="Layer_1" data-name="Layer 1" xmlns="http://www.w3.org/2000/svg" viewBox="0 0 595.28 595.28"><title>Group packages</title><path d="M251.86,401.09c7.55-.48,14.31.7,19.52,6.41s6.62,12.19,5,19.8c5.4,0,10.69,0,16,0a7.39,7.39,0,1,1-.11,14.78c-10.25,0-20.49,0-30.74,0h-28.9c0,4.23.08,8.25,0,12.26a7.39,7.39,0,0,1-14.77-.05,62.64,62.64,0,0,1,0-7.63c.38-3.78,0-6.8-4.48-7.88-1.39-.33-2.55-1.66-4.21-2.8v7.22c0,3.44.08,6.89,0,10.32-.19,5.72-4.83,9.28-9.78,7.59a6.72,6.72,0,0,1-4.91-5.82,60.92,60.92,0,0,1-.23-6.49c0-8.08-.06-16.15,0-24.23a4.61,4.61,0,0,0-1.82-4c-1.63-1.32-3.16-2.75-4.68-4.19a7.4,7.4,0,0,1-.73-10.12A7,7,0,0,1,197,405c3.69,2.92,7.11,6.17,10.62,9.31s7.25,6.47,10.81,9.78a11.55,11.55,0,0,0,8.31,3.24c9.58-.08,19.15,0,28.72,0,2.34,0,4.45-.53,5.81-2.68a5.52,5.52,0,0,0-4.59-8.55c-5-.12-10-.19-15,0-11.44.39-20.79-3.6-28.14-12.51-5.43-6.58-11.2-12.86-16.75-19.33a22.76,22.76,0,0,0-18-8.46c-7.48,0-15,0-22.43,0-6.41,0-10.86,4.46-10.94,10.82,0,2.47,0,5-.21,7.39a7.15,7.15,0,0,1-7.16,6.39,7.06,7.06,0,0,1-7.32-6.21c-1.23-11,.52-21.06,10.09-28.26a24.34,24.34,0,0,1,14.81-5c8.15,0,16.3-.15,24.45,0a35.91,35.91,0,0,1,27,12.54c6.31,7.1,12.51,14.3,18.72,21.48a16,16,0,0,0,11.26,6c0-1.19-.05-2.2,0-3.2.31-5.27,0-10.69,1.1-15.8,2.39-10.95,13-19.64,24.16-20.65.67-.06,1.34-.14,2-.23,5.15-.64,9.67.17,13.9,3.81,6.27,5.4,13.08,10.19,19.66,15.24.41.32.86.58,1.27.85,6.65-5.55,13.34-10.95,19.81-16.59a14,14,0,0,1,10.22-3.48c13.15.29,23.79,7.44,27.84,19.41a40.85,40.85,0,0,1,1.66,9.87c.28,3.48.06,7,.06,10.68a15.16,15.16,0,0,0,10.54-5.52c5.41-6.19,10.94-12.28,16.16-18.64,6.11-7.45,13.34-13,23-14.94a44.75,44.75,0,0,1,8-.81c7.25-.11,14.52.16,21.76-.08a25.71,25.71,0,0,1,26.79,25.91q.16,18.06,0,36.13c0,6-5.16,9.69-10.25,7.56a6.85,6.85,0,0,1-4.5-5.92,29.55,29.55,0,0,1-.15-3.13q0-16.71,0-33.43c0-8.17-4.1-12.2-12.31-12.2H416.59a22.34,22.34,0,0,0-17.57,8c-6.13,7-12.3,14.07-18.42,21.14A31.21,31.21,0,0,1,356.14,416c-5.61,0-11.22,0-16.83,0-3.56,0-6.12,2.29-6.19,5.41-.06,3.27,2.4,5.79,6.06,5.82,10.25.08,20.49.06,30.74,0,2.74,0,5-1.36,7-3.18,6.58-6,13.21-11.92,19.82-17.88,2.69-2.44,5.6-3.64,9.17-1.89a7.32,7.32,0,0,1,2.18,11.55c-1.7,1.78-3.73,3.25-5.39,5.06a5.35,5.35,0,0,0-1.43,3.21c-.11,9.35-.05,18.7-.08,28.05a19.4,19.4,0,0,1-.29,3.57,7.11,7.11,0,0,1-7.3,5.68,7,7,0,0,1-7.09-5.92,23.63,23.63,0,0,1-.25-3.57c0-5.15,0-10.31,0-15.59-2.87,1.53-5.6,2.94-8.25,4.47-.33.2-.39,1.05-.39,1.6,0,3.74,0,7.48,0,11.22-.05,4.64-3.07,7.8-7.41,7.8s-7.37-3.15-7.41-7.8c0-3.73,0-7.47,0-11.56h-2.66q-23.44,0-46.9,0a7.39,7.39,0,0,1-.09-14.78c1.86,0,3.73,0,5.86,0-1.66-7.59-.27-14.28,5.09-20s12.22-6.74,20.1-6.21c-.3-5.33-.05-10.46-1-15.36-1.19-6.18-7.72-10.46-14-10a4.92,4.92,0,0,0-2.49,1.27c-7.29,6.19-14.55,12.43-21.82,18.65-3.68,3.14-6.79,3.25-10.69.29-7.61-5.8-15.15-11.68-22.8-17.43-1.54-1.16-3.33-2.47-5.14-2.7a12,12,0,0,0-8.8,2.64,13.12,13.12,0,0,0-5.56,11C251.88,393.22,251.86,397,251.86,401.09Z"/><path d="M252.87,133.79c6.2,0,12.41-.14,18.61,0A58.2,58.2,0,0,1,296,244.12a54,54,0,0,1-27.48,6,39.25,39.25,0,0,0-22.13,5.33c-9,5.09-18.44,9.5-27.72,14.15-4.89,2.46-9.61,1-11.13-3.53a10.11,10.11,0,0,1-.12-5.24c1.08-4.64,2.41-9.23,3.82-13.78.46-1.47.15-2.09-1.18-2.74a56.86,56.86,0,0,1-26.59-26,55.64,55.64,0,0,1-5.32-35.92c4.26-22.94,17.79-38.14,39.64-45.93a54.5,54.5,0,0,1,18.75-2.76c5.46,0,10.92,0,16.38,0ZM226,249.21c8.25-4.15,15.95-8,23.55-11.91a17.06,17.06,0,0,1,7.94-1.91c6.34-.08,12.77.25,19-.65a43.15,43.15,0,0,0,36.17-50.6c-3.75-20.63-21.52-35.37-42.93-35.52-11.29-.08-22.58-.17-33.87.07a52.09,52.09,0,0,0-12.8,1.8c-22.07,6.18-35.59,30-29.6,52.16,4.11,15.17,13.76,25.35,28.56,30.62,5.11,1.82,7,5.27,5.54,10.5C227.12,245.4,226.63,247,226,249.21Z"/><path d="M254.73,312.13A42.76,42.76,0,0,1,295.59,269c25-1.24,44.16,17.94,45.15,41.52A42.79,42.79,0,0,1,299.13,355C274.81,355.91,255.51,337,254.73,312.13Zm43.13-28.32a28.16,28.16,0,0,0-28.17,27.79c-.07,15.51,12,28.56,28.15,28.51a28.15,28.15,0,0,0,0-56.3Z"/><path d="M130.4,312a42.83,42.83,0,0,1,41.19-43c24.7-1,44.23,18,44.83,42.34a42.7,42.7,0,0,1-41.74,43.63C150.22,355.79,130.86,336.66,130.4,312Zm43-28.2a28.15,28.15,0,1,0,28.21,28.25A28.11,28.11,0,0,0,173.39,283.81Z"/><path d="M378.82,311.56c-.38-19.22,14.55-40.87,40.24-42.53,24.59-1.58,43.27,16.65,45.53,38.92a43,43,0,1,1-85.77,3.61Zm71.11.5a28.11,28.11,0,1,0-28.19,28.05A28.21,28.21,0,0,0,449.93,312.06Z"/><path d="M145.33,432.9c0,7,.08,13.91,0,20.86-.08,5.76-5.35,9.33-10.36,7.13a7.27,7.27,0,0,1-4.53-7.13c0-13.83-.06-27.66,0-41.49,0-4.62,3.22-7.85,7.45-7.85s7.37,3.19,7.44,7.85C145.4,419.15,145.33,426,145.33,432.9Z"/><path d="M464.91,449.13c0,1.65.07,3.29,0,4.94-.23,4.35-3.27,7.35-7.44,7.38a7.13,7.13,0,0,1-7.4-7.11,96.56,96.56,0,0,1,0-10.76,7.29,7.29,0,0,1,7.46-7.11,7.49,7.49,0,0,1,7.38,7.5C465,445.69,464.91,447.41,464.91,449.13Z"/><path d="M248.88,199.45c7.42-10.38,14.61-20.48,21.83-30.54a7.22,7.22,0,0,1,11.12-1.19c2.87,2.65,3.21,6.62.72,10.14-6.65,9.38-13.36,18.72-20,28.08-2.08,2.91-4.14,5.85-6.26,8.74-3.25,4.43-8.21,4.85-12.11,1q-10.26-10.2-20.42-20.49c-3.23-3.25-3.32-7.71-.29-10.77s7.33-3,10.59.15C239,189.39,243.83,194.37,248.88,199.45Z"/></svg>