<svg id="Layer_1" data-name="Layer 1" xmlns="http://www.w3.org/2000/svg" viewBox="0 0 595.28 595.28"><title>School Trip</title><path d="M337.52,301V285.55c-2.7.34-5.29.63-7.87,1q-18,2.44-35.91,4.93c-1.47.2-2.93.43-4.39.65-4.2.64-6.72-1.48-6.72-5.76q0-16.32,0-32.66c0-4.72,2.37-6.7,7-5.86q13.95,2.5,27.89,5.06c8.23,1.49,16.45,3,24.67,4.5,4.09.73,5.49,2.34,5.5,6.53,0,12.49,0,25,0,37.49,0,1.75.46,2.6,2.16,3.18a68.17,68.17,0,0,1,24,14.39,70.16,70.16,0,0,1,22.28,39.47,89.32,89.32,0,0,1,1.52,15.91c.18,18.87.07,37.74.07,56.62,0,4.94-1.68,6.64-6.56,6.64-5.93,0-11.85,0-17.78,0-3.84,0-5.65-1.82-5.74-5.66a35.05,35.05,0,0,0-28.46-33.68c-19.56-3.89-39,10.3-41.17,30.05-.16,1.47-.26,2.95-.36,4.43a4.87,4.87,0,0,1-5,4.84q-25,.06-50,0c-2.92,0-4.76-1.85-4.9-4.88-.35-7.93-2.45-15.29-7.47-21.51-8.23-10.19-19-14.88-32-13.1-15.57,2.13-26.25,12.22-29.79,27.38a52,52,0,0,0-.78,7.08c-.28,3.28-2.05,5-5.36,5.05-3.16,0-6.31.07-9.47,0-8.89-.2-15.15-6.51-15.16-15.39q0-55.85,0-111.7c0-5.78,3.63-9.71,9.37-10.28.83-.08,1.67-.1,2.51-.1q86.87,0,173.72,0c4.11,0,8.21.57,12.31.87C336.16,301.08,336.79,301,337.52,301ZM147.65,377.65c0,15.35,0,30.42,0,45.48a4.77,4.77,0,0,0,1.19,2.74c2.54,2.95,5.9,1.47,8.85,1.82.7-3,1.14-5.77,2-8.4A45,45,0,0,1,247,425.76c.24,1.54.83,2,2.34,2,12.24-.06,24.48,0,36.72,0,.62,0,1.23-.05,1.81-.08,3.26-23.86,22.4-39.06,43.64-39.77a43.12,43.12,0,0,1,24.94,6.87c12.07,7.66,18.89,18.8,20.93,32.86h10.17V377.65H201.9c-.71,0-1.43.05-2.13,0a4.86,4.86,0,0,1-4.33-3.33c-1.24-3.42,1.28-6.65,5.19-6.65h107V310.21H147.74v57.44h26.93c3.22,0,5.46,2.06,5.46,5s-2.18,5-5.43,5c-5.86,0-11.73,0-17.59,0Zm170.16-10.13h69.45c-2.35-33.42-32.13-60.56-69.45-57.22Zm19.83-100.71-44.92-8.2v22.72a11,11,0,0,0,1.42,0l19.47-2.66q11.28-1.56,22.55-3.11c.95-.13,1.53-.41,1.5-1.54C337.59,271.7,337.64,269.38,337.64,266.81Z"/><path d="M331.93,191.86,256.2,251.44c5.05,4.72,10,9.4,15,14a3.78,3.78,0,0,1,1.39,3.15c-.09,3.73,0,7.47,0,11.8L207.3,219.48,200,226.37c-3.43,3.22-6.82,6.47-10.31,9.63a4.85,4.85,0,0,1-5.89.77,4.61,4.61,0,0,1-2.41-5.22,6.05,6.05,0,0,1,1.62-3q10.29-9.79,20.72-19.43c2.43-2.23,5.26-2,7.91.51q12.07,11.28,24.12,22.59l13,12.2,19.78-15.55q29.85-23.46,59.69-46.92c3.45-2.71,5.68-2.5,8.66.72l85.41,92.34c.57.61,1.16,1.21,1.68,1.87a5,5,0,0,1-.44,7.09,4.9,4.9,0,0,1-7.07-.56q-9.48-10.18-18.91-20.41l-65-70.4C332.35,192.46,332.22,192.24,331.93,191.86Z"/><path d="M177.63,432.58a25,25,0,0,1,50,.14,25,25,0,0,1-50-.14Zm25-14.85a15,15,0,1,0,15,14.91A15,15,0,0,0,202.59,417.73Z"/><path d="M357.61,432.64a25,25,0,1,1-24.88-24.89A24.74,24.74,0,0,1,357.61,432.64Zm-25-14.92a15,15,0,1,0,14.94,14.93A14.92,14.92,0,0,0,332.64,417.72Z"/><path d="M430.58,182.79a17.92,17.92,0,1,1-17.81-18.07A18.2,18.2,0,0,1,430.58,182.79Zm-18,7.7a7.88,7.88,0,1,0-7.82-8A8.06,8.06,0,0,0,412.6,190.49Z"/><path d="M213.45,174.54a6,6,0,0,1-3.18,4.57,4.62,4.62,0,0,1-5.39-.62c-2.59-2.18-5.36-3.69-8.9-3.5s-6.29,2-8.62,4.57c-1.23,1.33-2.63,2.43-4.51,2.1a7.87,7.87,0,0,1-3.44-1.45c-5.3-4.24-10.29-4.26-15.72.1-2.78,2.22-6.15,1.8-7.82-1a4.83,4.83,0,0,1,.72-6A21,21,0,0,1,181,169.26a2.47,2.47,0,0,0,3-.21,21.2,21.2,0,0,1,27.11,1.73A18.05,18.05,0,0,1,213.45,174.54Z"/><path d="M173.46,278.06a4.09,4.09,0,0,1-4.16-2.85A4.44,4.44,0,0,1,170,270c1.62-1.66,3.3-3.26,5-4.84q11.48-10.76,23-21.47a9.36,9.36,0,0,1,3.18-2.06,4.77,4.77,0,0,1,5.64,2.24,4.82,4.82,0,0,1-.75,5.87c-2.23,2.23-4.57,4.34-6.88,6.49-7.1,6.63-14.18,13.29-21.35,19.85a22.7,22.7,0,0,1-4.15,2.43Z"/><path d="M166.67,256.08a11.93,11.93,0,0,1-1.83,3q-9.34,9-18.86,17.7a5,5,0,0,1-6.95-.19,4.75,4.75,0,0,1,.13-6.92q9.61-9.21,19.4-18.24a4.47,4.47,0,0,1,5.25-.55C165.61,251.74,166.53,253.31,166.67,256.08Z"/><path d="M396.54,204.46a12.38,12.38,0,0,1-1.65,2.94c-2.2,2.42-4.57,4.71-6.93,7a5,5,0,1,1-7.11-7q3.54-3.69,7.24-7.23a4.64,4.64,0,0,1,5.37-.91C395.4,200.09,396.36,201.71,396.54,204.46Z"/><path d="M390.77,166.42a11.44,11.44,0,0,1-2.87-1.56c-2.43-2.21-4.71-4.57-7-6.94a4.92,4.92,0,0,1-.11-7.09,4.86,4.86,0,0,1,7.08-.06q3.69,3.54,7.23,7.24a4.63,4.63,0,0,1,.94,5.36C395.22,165.31,393.64,166.33,390.77,166.42Z"/><path d="M428.65,203.94a5.48,5.48,0,0,1,3.06-4.59,4.45,4.45,0,0,1,5.24.57c2.73,2.54,5.39,5.17,7.91,7.91a4.76,4.76,0,0,1-.37,6.63,4.81,4.81,0,0,1-6.65.32c-2.69-2.49-5.28-5.1-7.76-7.79A10.85,10.85,0,0,1,428.65,203.94Z"/><path d="M434.43,166.39c-2.48-.09-4.05-.82-4.93-2.63s-1-3.72.4-5.24c2.55-2.8,5.18-5.54,8-8.08a4.94,4.94,0,0,1,6.91,7c-2.47,2.77-5.16,5.38-7.89,7.91A6.77,6.77,0,0,1,434.43,166.39Z"/><path d="M407.72,217.55c0-1.74-.07-3.48,0-5.21a4.91,4.91,0,0,1,4.87-4.75,4.8,4.8,0,0,1,5,4.42c.18,3.72.18,7.46,0,11.18a4.8,4.8,0,0,1-5.12,4.46,4.93,4.93,0,0,1-4.73-4.89c-.07-1.73,0-3.47,0-5.21Z"/><path d="M377.67,187.58c-1.73,0-3.47.06-5.2,0a4.92,4.92,0,0,1-4.83-4.79,4.82,4.82,0,0,1,4.52-5.07c3.66-.17,7.33-.17,11,0a4.83,4.83,0,0,1,4.54,5.05,4.91,4.91,0,0,1-4.81,4.81C381.15,187.64,379.41,187.58,377.67,187.58Z"/><path d="M447.61,187.57c-1.73,0-3.47.07-5.21,0a5,5,0,0,1-4.77-4.86,4.83,4.83,0,0,1,4.43-5c3.71-.18,7.45-.18,11.17,0a4.74,4.74,0,0,1,4.44,5.12,4.87,4.87,0,0,1-4.85,4.74c-1.73.07-3.47,0-5.21,0Z"/><path d="M407.71,147.61c0-1.73-.06-3.47,0-5.21a4.86,4.86,0,0,1,4.8-4.79,4.78,4.78,0,0,1,5.06,4.51c.17,3.65.16,7.33,0,11a4.86,4.86,0,0,1-5.06,4.54,4.94,4.94,0,0,1-4.8-4.83C407.65,151.09,407.71,149.35,407.71,147.61Z"/><path d="M227.63,357.61c-4.83,0-9.66,0-14.49,0-3.57,0-5.52-1.95-5.53-5.48q0-13.33,0-26.66a5,5,0,0,1,5.15-5.33q14.88-.11,29.75,0a5,5,0,0,1,5.15,5.15q.1,13.51,0,27c0,3.47-2,5.25-5.54,5.28C237.29,357.64,232.46,357.61,227.63,357.61Zm9.93-27.36H217.75v17.29h19.81Z"/><path d="M277.75,357.61c-4.83,0-9.66,0-14.49,0-3.73,0-5.59-1.8-5.62-5.57q-.09-13.23,0-26.46c0-3.39,2-5.44,5.42-5.46q14.58-.06,29.16,0c3.47,0,5.42,2.13,5.42,5.64q0,13.14,0,26.27c0,3.69-1.87,5.56-5.6,5.58C287.28,357.64,282.51,357.61,277.75,357.61Zm-10-27.41c-.05.58-.13,1.08-.13,1.58,0,4.69.05,9.39,0,14.08,0,1.46.44,1.86,1.86,1.84,5.53-.07,11.06,0,16.59,0,.49,0,1-.11,1.48-.16V330.2Z"/><path d="M177.43,357.61c-4.76,0-9.53,0-14.29,0-3.62,0-5.46-1.86-5.47-5.49q0-13.32,0-26.65c0-3.28,2-5.32,5.27-5.34q14.69-.09,29.36,0c3.32,0,5.27,2.05,5.28,5.34q0,13.32,0,26.65c0,3.63-1.86,5.46-5.47,5.49C187.22,357.64,182.32,357.61,177.43,357.61Zm10-27.39H167.83v17.32h19.65Z"/></svg>